<?xml version="1.0" encoding="UTF-8" standalone="no"?>
<!-- Created with Inkscape (http://www.inkscape.org/) -->

<svg
   xmlns:dc="http://purl.org/dc/elements/1.1/"
   xmlns:cc="http://creativecommons.org/ns#"
   xmlns:rdf="http://www.w3.org/1999/02/22-rdf-syntax-ns#"
   xmlns:svg="http://www.w3.org/2000/svg"
   xmlns="http://www.w3.org/2000/svg"
   xmlns:sodipodi="http://sodipodi.sourceforge.net/DTD/sodipodi-0.dtd"
   xmlns:inkscape="http://www.inkscape.org/namespaces/inkscape"
   id="svg3438"
   version="1.1"
   inkscape:version="0.91 r13725"
   width="65.300003"
   height="182.25"
   viewBox="0 0 65.300002 182.24998"
   sodipodi:docname="AZ Logo Soft Black V3.svg"
   inkscape:export-filename="/Users/AbiZelip/Documents/Azellaz/Logo Soft Grey v5.png"
   inkscape:export-xdpi="150"
   inkscape:export-ydpi="150">
  <metadata
     id="metadata3444">
    <rdf:RDF>
      <cc:Work
         rdf:about="">
        <dc:format>image/svg+xml</dc:format>
        <dc:type
           rdf:resource="http://purl.org/dc/dcmitype/StillImage" />
        <dc:title></dc:title>
      </cc:Work>
    </rdf:RDF>
  </metadata>
  <defs
     id="defs3442" />
  <sodipodi:namedview
     pagecolor="#ffffff"
     bordercolor="#666666"
     borderopacity="1"
     objecttolerance="10"
     gridtolerance="10"
     guidetolerance="10"
     inkscape:pageopacity="0"
     inkscape:pageshadow="2"
     inkscape:window-width="1440"
     inkscape:window-height="852"
     id="namedview3440"
     showgrid="false"
     showguides="false"
     inkscape:guide-bbox="true"
     inkscape:zoom="3.5665295"
     inkscape:cx="32.650002"
     inkscape:cy="12.617308"
     inkscape:window-x="0"
     inkscape:window-y="0"
     inkscape:window-maximized="1"
     inkscape:current-layer="svg3438">
    <inkscape:grid
       type="xygrid"
       id="grid3450" />
    <sodipodi:guide
       position="85.875,287.9375"
       orientation="0,1"
       id="guide3470" />
    <sodipodi:guide
       position="111,295.25"
       orientation="1,0"
       id="guide3472" />
    <sodipodi:guide
       position="107.5,265"
       orientation="1,0"
       id="guide3482" />
    <sodipodi:guide
       position="98.125001,112.6875"
       orientation="0,1"
       id="guide3486" />
    <sodipodi:guide
       position="157.15448,289.0299"
       orientation="0,1"
       id="guide3488" />
    <sodipodi:guide
       position="166.75,182"
       orientation="1,0"
       id="guide3492" />
    <sodipodi:guide
       position="170,167"
       orientation="1,0"
       id="guide3494" />
    <sodipodi:guide
       position="107.5,228.5"
       orientation="0,1"
       id="guide3496" />
    <sodipodi:guide
       position="94.25,231.75"
       orientation="0,1"
       id="guide3498" />
    <sodipodi:guide
       position="156.97771,293.00737"
       orientation="1,0"
       id="guide3500" />
    <sodipodi:guide
       position="157.94998,231.75"
       orientation="1,0"
       id="guide3502" />
    <sodipodi:guide
       position="125.24629,179.33996"
       orientation="1,0"
       id="guide3504" />
    <sodipodi:guide
       position="126.0625,121.4375"
       orientation="1,0"
       id="guide3506" />
    <sodipodi:guide
       position="105.18213,169.61724"
       orientation="0,1"
       id="guide3508" />
    <sodipodi:guide
       position="102.875,172.6875"
       orientation="0,1"
       id="guide3510" />
    <sodipodi:guide
       position="140.18392,230.16326"
       orientation="1,0"
       id="guide3376" />
    <sodipodi:guide
       position="136.91355,228.5"
       orientation="1,0"
       id="guide3378" />
    <sodipodi:guide
       position="112.5625,179.5"
       orientation="0,1"
       id="guide4164" />
    <sodipodi:guide
       position="117.25,119.3125"
       orientation="0,1"
       id="guide4168" />
    <sodipodi:guide
       position="123.3125,281.9375"
       orientation="0,1"
       id="guide4170" />
    <sodipodi:guide
       position="140.18392,161.39712"
       orientation="0,1"
       id="guide4191" />
    <sodipodi:guide
       position="15.75,192"
       orientation="0,1"
       id="guide4194" />
    <sodipodi:guide
       position="17.25,200"
       orientation="0,1"
       id="guide4196" />
    <sodipodi:guide
       position="-0.09668366,55.109681"
       orientation="1,0"
       id="guide4202" />
    <sodipodi:guide
       position="65.454838,58.977027"
       orientation="1,0"
       id="guide4204" />
    <sodipodi:guide
       position="70.482388,62.651006"
       orientation="0,1"
       id="guide4206" />
    <sodipodi:guide
       position="72.12601,-0.1933673"
       orientation="0,1"
       id="guide4208" />
    <sodipodi:guide
       position="-5.0275503,2.9005095"
       orientation="0,1"
       id="guide4210" />
    <sodipodi:guide
       position="-5.8010196,59.267078"
       orientation="0,1"
       id="guide4212" />
    <sodipodi:guide
       position="16.844344,57.696714"
       orientation="1,0"
       id="guide4214" />
    <sodipodi:guide
       position="48.984127,51.113867"
       orientation="1,0"
       id="guide4216" />
  </sodipodi:namedview>
  <path
     id="rect3518-6-4-3"
     d="m 49.05658,119.73269 16.377631,-0.0884 0,3.25 -16.377631,0.0884 z"
     style="fill:#151313;fill-opacity:1;stroke:#151313;stroke-width:0;stroke-miterlimit:4;stroke-dasharray:none;stroke-opacity:1"
     inkscape:connector-curvature="0"
     sodipodi:nodetypes="ccccc" />
  <path
     inkscape:connector-curvature="0"
     style="fill:#151313"
     d="m 48.983384,179.32107 16.557038,0 0,3.07321 -16.557038,0 z"
     id="rect3522-8-7-7" />
  <path
     style="font-style:normal;font-variant:normal;font-weight:300;font-stretch:normal;font-size:medium;line-height:125%;font-family:BenchNine;-inkscape-font-specification:'BenchNine, Light';text-align:start;letter-spacing:0px;word-spacing:0px;writing-mode:lr-tb;text-anchor:start;fill:#151313;fill-opacity:1;stroke:none;stroke-width:1px;stroke-linecap:butt;stroke-linejoin:miter;stroke-opacity:1"
     id="path3382-8-7-6"
     d="m 36.54249,172.26716 q -0.35156,0 -0.49805,-0.14609 -0.14648,-0.1461 -0.14648,-0.75972 l 0,-0.6136 q 0,-0.61363 0.26367,-1.54867 l 10.3418,-34.9468 q 0.14648,-0.7305 0.14648,-0.81816 0,-0.55517 -0.32226,-0.55517 l -9.60938,0 q -0.26367,0 -0.38086,-0.0292 -0.11719,-0.0292 -0.23437,-0.23375 -0.0879,-0.20453 -0.0879,-0.64284 l 0,-0.81815 q 0,-0.61361 0.14648,-0.75971 0.17578,-0.14609 0.55664,-0.14609 l 13.06641,0 q 0.35156,0 0.49804,0.14609 0.17578,0.1461 0.17578,0.75971 l 0,0.49674 q 0,1.25644 -0.38085,2.54212 l -10.10743,34.30398 q -0.14648,0.4383 -0.14648,0.73049 0,0.40908 0.20508,0.40908 l 10.01953,0 q 0.26367,0 0.35156,0.0292 0.11719,0 0.20508,0.20454 0.11719,0.17532 0.11719,0.61361 l 0,0.87659 q 0,0.40908 -0.11719,0.61362 -0.0879,0.20454 -0.20508,0.26297 -0.11719,0.0292 -0.35156,0.0292 l -13.50586,0 z"
     inkscape:connector-curvature="0" />
  <path
     inkscape:connector-curvature="0"
     style="fill:#151313"
     d="m 0.03809636,119.72418 16.86627664,0 0,3.35876 -16.86627664,0 z"
     id="rect3512-0-3-0" />
  <path
     id="rect3516-9-0-9"
     d="m 2.2026,179.38658 14.701333,0 0,3.18198 -14.701333,0 z"
     style="fill:#151313"
     inkscape:connector-curvature="0" />
  <path
     id="rect3514-9-6-7"
     d="m 0.02843,122.6689 3.5,0 0,59.89966 -3.5,0 z"
     style="fill:#151313"
     inkscape:connector-curvature="0"
     sodipodi:nodetypes="ccccc" />
  <path
     id="rect3520-4-7-8"
     d="m 62.203563,122.79217 3.249972,0 -0.0286,59.41436 -3.249972,0 z"
     style="fill:#151313;fill-opacity:1;stroke:#151313;stroke-width:0;stroke-miterlimit:4;stroke-dasharray:none;stroke-opacity:1"
     inkscape:connector-curvature="0"
     sodipodi:nodetypes="ccccc" />
  <path
     style="font-style:normal;font-variant:normal;font-weight:300;font-stretch:normal;font-size:60px;line-height:125%;font-family:BenchNine;-inkscape-font-specification:'BenchNine, Light';text-align:start;letter-spacing:0px;word-spacing:0px;writing-mode:lr-tb;text-anchor:start;fill:#151313;fill-opacity:1;stroke:none;stroke-width:1px;stroke-linecap:butt;stroke-linejoin:miter;stroke-opacity:1"
     d="m 19.640724,129.99691 c -0.50781,0.0586 -0.85938,0.5957 -1.05469,1.61132 l -4.9668,38.87695 c -0.0193,0.11719 -0.0293,0.25391 -0.0293,0.41016 l 0,0.32226 c 0,0.60547 0.14649,0.90821 0.43946,0.90821 l 1.69922,0 c 0.27344,0 0.3125,0.1875 0.92773,-0.10547 0,0 2.37234,-14.03298 3.27049,-20.93114 2.25027,1.64384 4.91678,3.41061 4.91678,3.41061 l 4.67575,16.26583 c 0.15625,0.95703 0.54688,1.43555 1.17188,1.43555 l 2.08007,0 c 0.29297,0 0.43946,-0.29297 0.43946,-0.87891 0,-0.11719 -0.0293,-0.24414 -0.0879,-0.38086 -0.0391,-0.15625 -0.0684,-0.28316 -0.0879,-0.38086 l -7.0974,-29.38787 -2.48828,-9.56446 c -0.17578,-1.01562 -0.51758,-1.55273 -1.02539,-1.61132 z m 1.96848,6.06766 3.07448,15.23898 -4.41015,-3.30469 0.74878,-11.93356 z"
     id="path3368-3-9-2-6"
     inkscape:connector-curvature="0"
     sodipodi:nodetypes="cccssssccccsssccccccccccc" />
</svg>
