<?xml version="1.0" encoding="utf-8"?>
<!-- Generator: Adobe Illustrator 21.0.0, SVG Export Plug-In . SVG Version: 6.00 Build 0)  -->
<svg version="1.1"
	 id="svg3438" inkscape:export-filename="/Users/AbiZelip/Documents/Azellaz/Logo Soft Grey v5.png" inkscape:export-xdpi="150" inkscape:export-ydpi="150" inkscape:version="0.91 r13725" sodipodi:docname="Logo Soft Black v6.svg" xmlns:cc="http://creativecommons.org/ns#" xmlns:dc="http://purl.org/dc/elements/1.1/" xmlns:inkscape="http://www.inkscape.org/namespaces/inkscape" xmlns:rdf="http://www.w3.org/1999/02/22-rdf-syntax-ns#" xmlns:sodipodi="http://sodipodi.sourceforge.net/DTD/sodipodi-0.dtd" xmlns:svg="http://www.w3.org/2000/svg"
	 xmlns="http://www.w3.org/2000/svg" xmlns:xlink="http://www.w3.org/1999/xlink" x="0px" y="0px" viewBox="0 0 928.3 2326.3"
	 style="enable-background:new 0 0 928.3 2326.3;" xml:space="preserve">
<style type="text/css">
	.st0{fill:#151313;}
</style>
<sodipodi:namedview  bordercolor="#666666" borderopacity="1" gridtolerance="10" guidetolerance="10" id="namedview3440" inkscape:current-layer="svg3438" inkscape:cx="64.83997" inkscape:cy="16.496405" inkscape:guide-bbox="true" inkscape:pageopacity="0" inkscape:pageshadow="2" inkscape:window-height="852" inkscape:window-maximized="1" inkscape:window-width="1440" inkscape:window-x="0" inkscape:window-y="0" inkscape:zoom="16" objecttolerance="10" pagecolor="#ffffff" showgrid="false" showguides="false">
	<inkscape:grid  id="grid3450" type="xygrid"></inkscape:grid>
	<sodipodi:guide  id="guide3470" orientation="0,1" position="85.875,287.9375"></sodipodi:guide>
	<sodipodi:guide  id="guide3472" orientation="1,0" position="111,295.25"></sodipodi:guide>
	<sodipodi:guide  id="guide3482" orientation="1,0" position="107.5,265"></sodipodi:guide>
	<sodipodi:guide  id="guide3486" orientation="0,1" position="98.125001,112.6875"></sodipodi:guide>
	<sodipodi:guide  id="guide3488" orientation="0,1" position="157.15448,289.0299"></sodipodi:guide>
	<sodipodi:guide  id="guide3492" orientation="1,0" position="166.75,182"></sodipodi:guide>
	<sodipodi:guide  id="guide3494" orientation="1,0" position="170,167"></sodipodi:guide>
	<sodipodi:guide  id="guide3496" orientation="0,1" position="107.5,228.5"></sodipodi:guide>
	<sodipodi:guide  id="guide3498" orientation="0,1" position="94.25,231.75"></sodipodi:guide>
	<sodipodi:guide  id="guide3500" orientation="1,0" position="156.97771,293.00737"></sodipodi:guide>
	<sodipodi:guide  id="guide3502" orientation="1,0" position="157.94998,231.75"></sodipodi:guide>
	<sodipodi:guide  id="guide3504" orientation="1,0" position="125.24629,179.33996"></sodipodi:guide>
	<sodipodi:guide  id="guide3506" orientation="1,0" position="126.0625,121.4375"></sodipodi:guide>
	<sodipodi:guide  id="guide3508" orientation="0,1" position="105.18213,169.61724"></sodipodi:guide>
	<sodipodi:guide  id="guide3510" orientation="0,1" position="102.875,172.6875"></sodipodi:guide>
	<sodipodi:guide  id="guide3376" orientation="1,0" position="140.18392,230.16326"></sodipodi:guide>
	<sodipodi:guide  id="guide3378" orientation="1,0" position="136.91355,228.5"></sodipodi:guide>
	<sodipodi:guide  id="guide4164" orientation="0,1" position="112.5625,179.5"></sodipodi:guide>
	<sodipodi:guide  id="guide4168" orientation="0,1" position="117.25,119.3125"></sodipodi:guide>
	<sodipodi:guide  id="guide4170" orientation="0,1" position="123.3125,281.9375"></sodipodi:guide>
	<sodipodi:guide  id="guide4191" orientation="0,1" position="140.18392,161.39712"></sodipodi:guide>
	<sodipodi:guide  id="guide4194" orientation="0,1" position="15.75,192"></sodipodi:guide>
	<sodipodi:guide  id="guide4196" orientation="0,1" position="17.25,200"></sodipodi:guide>
</sodipodi:namedview>
<g id="g4178" transform="translate(-107.50184,-8.7570055)">
	<path id="rect3512-0-3-0" inkscape:connector-curvature="0" class="st0" d="M204.4,14.8h629.7v42.7H204.4V14.8z"/>
	<path id="rect3516-9-0-9" inkscape:connector-curvature="0" class="st0" d="M232,1523.5h198.2v40.5H232V1523.5z"/>
	<path id="rect3518-6-4-3" inkscape:connector-curvature="0" sodipodi:nodetypes="ccccc" class="st0" d="M846.5,783.4l189.4-1.1
		v41.4l-189.4,1.1V783.4z"/>
	<path id="rect3522-8-7-7" inkscape:connector-curvature="0" class="st0" d="M440.4,2287.3h567.1v47.7H440.4V2287.3z"/>
	<g id="g4167" transform="translate(0,-60)">
		<path id="path3370-8-1-1" inkscape:connector-curvature="0" class="st0" d="M628.9,729.2c-3,0-5.1-0.6-6.3-1.9
			c-1.2-1.2-1.9-4.4-1.9-9.6V710c0-5.2,1.1-11.7,3.4-19.6L755.6,247c1.2-6.2,1.9-9.6,1.9-10.4c0-4.7-1.4-7-4.1-7H631.1
			c-2.2,0-3.9-0.1-4.8-0.4c-1-0.2-2-1.2-3-3c-0.7-1.7-1.1-4.4-1.1-8.2v-10.4c0-5.2,0.6-8.4,1.9-9.6c1.5-1.2,3.9-1.9,7.1-1.9h166.3
			c3,0,5.1,0.6,6.3,1.9c1.5,1.2,2.2,4.4,2.2,9.6v6.3c0,10.6-1.6,21.4-4.8,32.2L672.5,681.4c-1.2,3.7-1.9,6.8-1.9,9.3
			c0,3.5,0.9,5.2,2.6,5.2h127.5c2.2,0,3.7,0.1,4.5,0.4c1,0,1.9,0.9,2.6,2.6c1,1.5,1.5,4.1,1.5,7.8v11.1c0,3.5-0.5,6.1-1.5,7.8
			c-0.7,1.7-1.6,2.8-2.6,3.3c-1,0.2-2.5,0.4-4.5,0.4L628.9,729.2L628.9,729.2z"/>
		<path id="path3373-9-1-9" inkscape:connector-curvature="0" class="st0" d="M330.9,1496.8c-2.2,0-3.9-0.1-4.8-0.4
			c-1-0.5-1.9-1.7-2.6-3.7c-0.7-2-1.1-5-1.1-8.9V973.6c0-5.2,0.6-8.7,1.9-10.4c1.5-1.7,3.7-2.6,6.7-2.6h173.8c3.2,0,5.5,0.6,6.7,1.9
			c1.2,1.2,1.9,4.5,1.9,9.7v10.4c0,3.7-0.5,6.5-1.5,8.2c-0.7,1.7-1.6,2.7-2.6,3c-0.7,0.2-2.2,0.4-4.5,0.4H367.8
			c-2.5,0-3.7,3.5-3.7,10.4v193.5c0,0.7,0.2,1.9,0.7,3.4c0.7,1.2,1.2,1.9,1.5,1.9h118.9c3.2,0,5.5,0.7,6.7,2.2
			c1.2,1.2,1.9,4.4,1.9,9.3v10.8c0,5.2-0.6,8.6-1.9,10.1c-1.2,1.5-3.5,2.2-6.7,2.2H366.7c-0.2,0-0.7,1.1-1.5,3.4
			c-0.7,2.2-1.1,3.7-1.1,4.5v217.4h141.3c2.2,0,3.7,0.1,4.5,0.4c1,0.2,1.9,1.2,2.6,3c1,1.7,1.5,4.5,1.5,8.2v10.4
			c0,5.2-0.6,8.5-1.9,9.7c-1.2,1.2-3.5,1.9-6.7,1.9L330.9,1496.8L330.9,1496.8z"/>
		<path id="path3375-2-8-0" inkscape:connector-curvature="0" class="st0" d="M587.4,1496.8c-3.2,0-5.5-1-6.7-3
			c-1.2-2.2-1.9-7.1-1.9-14.5V978.1c0-7.5,0.6-12.2,1.9-14.2c1.2-2.2,3.5-3.4,6.7-3.4H612c3.2,0,5.5,1.1,6.7,3.4
			c1.2,2,1.9,6.7,1.9,14.2v477.7c0,2.2,0.2,4,0.7,5.2s1,2,1.5,2.2c0.7,0,1.7,0,3,0H725c3.2,0,5.5,0.6,6.7,1.9c1.5,1,2.2,4,2.2,8.9
			v11.2c0,3.5-0.5,6.1-1.5,7.8c-0.7,1.7-1.6,2.9-2.6,3.4c-1,0.2-2.6,0.4-4.8,0.4H587.4L587.4,1496.8z"/>
		<path id="path3377-9-4-7" inkscape:connector-curvature="0" class="st0" d="M802.2,1496.8c-3.2,0-5.5-1-6.7-3
			c-1.2-2.2-1.9-7.1-1.9-14.5V978.1c0-7.5,0.6-12.2,1.9-14.2c1.2-2.2,3.5-3.4,6.7-3.4h24.6c3.2,0,5.5,1.1,6.7,3.4
			c1.2,2,1.9,6.7,1.9,14.2v477.7c0,2.2,0.2,4,0.7,5.2c0.5,1.2,1,2,1.5,2.2c0.7,0,1.7,0,3,0h99.2c3.2,0,5.5,0.6,6.7,1.9
			c1.5,1,2.2,4,2.2,8.9v11.2c0,3.5-0.5,6.1-1.5,7.8c-0.7,1.7-1.6,2.9-2.6,3.4c-1,0.2-2.6,0.4-4.8,0.4H802.2L802.2,1496.8z"/>
		<path id="path3382-8-7-6" inkscape:connector-curvature="0" class="st0" d="M774.1,2263.6c-3,0-5.1-0.6-6.3-1.9
			c-1.2-1.2-1.9-4.5-1.9-9.7v-7.8c0-5.2,1.1-11.8,3.4-19.7l131.6-444.8c1.2-6.2,1.9-9.7,1.9-10.4c0-4.7-1.4-7.1-4.1-7.1H776.3
			c-2.2,0-3.9-0.1-4.8-0.4c-1-0.2-2-1.2-3-3c-0.7-1.7-1.1-4.5-1.1-8.2v-10.4c0-5.2,0.6-8.4,1.9-9.7c1.5-1.2,3.9-1.9,7.1-1.9h166.3
			c3,0,5.1,0.6,6.3,1.9c1.5,1.2,2.2,4.5,2.2,9.7v6.3c0,10.7-1.6,21.4-4.8,32.4l-128.6,436.6c-1.2,3.7-1.9,6.8-1.9,9.3
			c0,3.5,0.9,5.2,2.6,5.2H946c2.2,0,3.7,0.1,4.5,0.4c1,0,1.9,0.9,2.6,2.6c1,1.5,1.5,4.1,1.5,7.8v11.2c0,3.5-0.5,6.1-1.5,7.8
			c-0.7,1.7-1.6,2.9-2.6,3.3c-1,0.2-2.5,0.4-4.5,0.4L774.1,2263.6L774.1,2263.6z"/>
		<path id="rect3514-9-6-7" inkscape:connector-curvature="0" sodipodi:nodetypes="ccccc" class="st0" d="M204.4,80.1h44.5V1624
			h-44.5V80.1z"/>
		<path id="rect3520-4-7-8" inkscape:connector-curvature="0" sodipodi:nodetypes="ccccc" class="st0" d="M994.5,875.2h41.4
			l-0.4,1519.9h-41.4L994.5,875.2z"/>
		<path id="path3368-3-9-2" inkscape:connector-curvature="0" sodipodi:nodetypes="cccssssccccsssccccccccccc" class="st0" d="
			M403.5,193c-6.5,0.7-10.9,7.6-13.4,20.5l-63.2,494.8c-0.2,1.5-0.4,3.2-0.4,5.2v4.1c0,7.7,1.9,11.6,5.6,11.6h21.6
			c3.5,0,4,2.4,11.8-1.3c0,0,30.2-178.6,41.6-266.4c28.6,20.9,62.6,43.4,62.6,43.4l91,301.5c2,12.2,7,18.3,14.9,18.3h26.5
			c3.7,0,5.6-3.7,5.6-11.2c0-1.5-0.4-3.1-1.1-4.8c-0.5-2-0.9-3.6-1.1-4.8L483.6,335.3l-31.7-121.7c-2.2-12.9-6.6-19.8-13.1-20.5
			H403.5z M428.5,270.3l39.1,194l-56.1-42.1l9.5-151.9L428.5,270.3z"/>
		<path id="path3368-3-9-2-6" inkscape:connector-curvature="0" sodipodi:nodetypes="cccssssccccsssccccccccccc" class="st0" d="
			M554,1726.9c-6.5,0.7-10.9,7.6-13.4,20.5l-63.2,494.8c-0.2,1.5-0.4,3.2-0.4,5.2v4.1c0,7.7,1.9,11.6,5.6,11.6h21.6
			c3.5,0,4,2.4,11.8-1.3c0,0,30.2-178.6,41.6-266.4c28.6,20.9,62.6,43.4,62.6,43.4l59.5,207c2,12.2,7,18.3,14.9,18.3h26.5
			c3.7,0,5.6-3.7,5.6-11.2c0-1.5-0.4-3.1-1.1-4.8c-0.5-2-0.9-3.6-1.1-4.8l-90.3-374l-31.7-121.7c-2.2-12.9-6.6-19.8-13.1-20.5
			L554,1726.9z M579.1,1804.1l39.1,194l-56.1-42.1l9.5-151.9L579.1,1804.1z"/>
	</g>
</g>
</svg>
