<?xml version="1.0" encoding="UTF-8" standalone="no"?>
<!-- Created with Inkscape (http://www.inkscape.org/) -->

<svg
   xmlns:dc="http://purl.org/dc/elements/1.1/"
   xmlns:cc="http://creativecommons.org/ns#"
   xmlns:rdf="http://www.w3.org/1999/02/22-rdf-syntax-ns#"
   xmlns:svg="http://www.w3.org/2000/svg"
   xmlns="http://www.w3.org/2000/svg"
   xmlns:sodipodi="http://sodipodi.sourceforge.net/DTD/sodipodi-0.dtd"
   xmlns:inkscape="http://www.inkscape.org/namespaces/inkscape"
   id="svg3438"
   version="1.1"
   inkscape:version="0.91 r13725"
   width="65.300003"
   height="182.25"
   viewBox="0 0 65.300002 182.24998"
   sodipodi:docname="AZ Logo Soft Black.svg"
   inkscape:export-filename="/Users/AbiZelip/Documents/Azellaz/Logo Soft Grey v5.png"
   inkscape:export-xdpi="150"
   inkscape:export-ydpi="150">
  <metadata
     id="metadata3444">
    <rdf:RDF>
      <cc:Work
         rdf:about="">
        <dc:format>image/svg+xml</dc:format>
        <dc:type
           rdf:resource="http://purl.org/dc/dcmitype/StillImage" />
        <dc:title></dc:title>
      </cc:Work>
    </rdf:RDF>
  </metadata>
  <defs
     id="defs3442" />
  <sodipodi:namedview
     pagecolor="#ffffff"
     bordercolor="#666666"
     borderopacity="1"
     objecttolerance="10"
     gridtolerance="10"
     guidetolerance="10"
     inkscape:pageopacity="0"
     inkscape:pageshadow="2"
     inkscape:window-width="1440"
     inkscape:window-height="852"
     id="namedview3440"
     showgrid="false"
     showguides="false"
     inkscape:guide-bbox="true"
     inkscape:zoom="3.5665295"
     inkscape:cx="32.650002"
     inkscape:cy="124.77115"
     inkscape:window-x="0"
     inkscape:window-y="0"
     inkscape:window-maximized="1"
     inkscape:current-layer="svg3438">
    <inkscape:grid
       type="xygrid"
       id="grid3450" />
    <sodipodi:guide
       position="85.875,287.9375"
       orientation="0,1"
       id="guide3470" />
    <sodipodi:guide
       position="111,295.25"
       orientation="1,0"
       id="guide3472" />
    <sodipodi:guide
       position="107.5,265"
       orientation="1,0"
       id="guide3482" />
    <sodipodi:guide
       position="-4.0827298,113.13458"
       orientation="0,1"
       id="guide3486" />
    <sodipodi:guide
       position="157.15448,289.0299"
       orientation="0,1"
       id="guide3488" />
    <sodipodi:guide
       position="166.75,182"
       orientation="1,0"
       id="guide3492" />
    <sodipodi:guide
       position="170,167"
       orientation="1,0"
       id="guide3494" />
    <sodipodi:guide
       position="107.5,228.5"
       orientation="0,1"
       id="guide3496" />
    <sodipodi:guide
       position="94.25,231.75"
       orientation="0,1"
       id="guide3498" />
    <sodipodi:guide
       position="156.97771,293.00737"
       orientation="1,0"
       id="guide3500" />
    <sodipodi:guide
       position="157.94998,231.75"
       orientation="1,0"
       id="guide3502" />
    <sodipodi:guide
       position="125.24629,179.33996"
       orientation="1,0"
       id="guide3504" />
    <sodipodi:guide
       position="126.0625,121.4375"
       orientation="1,0"
       id="guide3506" />
    <sodipodi:guide
       position="105.18213,169.61724"
       orientation="0,1"
       id="guide3508" />
    <sodipodi:guide
       position="102.875,172.6875"
       orientation="0,1"
       id="guide3510" />
    <sodipodi:guide
       position="140.18392,230.16326"
       orientation="1,0"
       id="guide3376" />
    <sodipodi:guide
       position="136.91355,228.5"
       orientation="1,0"
       id="guide3378" />
    <sodipodi:guide
       position="-6.3389753,178.99545"
       orientation="0,1"
       id="guide4164" />
    <sodipodi:guide
       position="-3.8678493,116.35779"
       orientation="0,1"
       id="guide4168" />
    <sodipodi:guide
       position="123.3125,281.9375"
       orientation="0,1"
       id="guide4170" />
    <sodipodi:guide
       position="140.18392,161.39712"
       orientation="0,1"
       id="guide4191" />
    <sodipodi:guide
       position="15.75,192"
       orientation="0,1"
       id="guide4194" />
    <sodipodi:guide
       position="17.25,200"
       orientation="0,1"
       id="guide4196" />
    <sodipodi:guide
       position="-6.231535,182.21866"
       orientation="0,1"
       id="guide4221" />
    <sodipodi:guide
       position="32.554398,174.80529"
       orientation="1,0"
       id="guide4223" />
  </sodipodi:namedview>
  <path
     inkscape:connector-curvature="0"
     style="fill:#151313"
     d="m 0.02843,-5.35e-5 44.140076,0 0,3.358761 -44.140076,0 z"
     id="rect3512-0-3-0" />
  <path
     id="rect3516-9-0-9"
     d="m -0.04113259,66.095871 30.43250459,0 0,3.18198 -30.43250459,0 z"
     style="fill:#151313"
     inkscape:connector-curvature="0" />
  <path
     id="path3370-8-1-1"
     style="font-style:normal;font-variant:normal;font-weight:300;font-stretch:normal;font-size:60px;line-height:125%;font-family:BenchNine;-inkscape-font-specification:'BenchNine, Light';text-align:start;letter-spacing:0px;word-spacing:0px;writing-mode:lr-tb;text-anchor:start;fill:#151313;fill-opacity:1;stroke:none;stroke-width:1px;stroke-linecap:butt;stroke-linejoin:miter;stroke-opacity:1"
     d="m 35.933736,56.448669 q -0.481521,0 -0.682144,-0.165036 -0.200623,-0.165046 -0.200623,-0.858215 l 0,-0.693168 q 0,-0.69318 0.36113,-1.749446 l 14.164412,-39.4778 q 0.200637,-0.825205 0.200637,-0.924231 0,-0.627156 -0.44139,-0.627156 l -13.161269,0 q -0.36113,0 -0.521637,-0.03302 -0.160506,-0.03302 -0.321013,-0.264065 -0.120391,-0.231057 -0.120391,-0.72618 l 0,-0.924231 q 0,-0.6931713 0.200637,-0.8582133 0.240754,-0.1650369 0.76239,-0.1650369 l 17.896117,0 q 0.48152,0 0.682143,0.1650409 0.240754,0.165042 0.240754,0.8582133 l 0,0.56114 q 0,1.419354 -0.521637,2.871713 L 40.628453,52.190599 q -0.200623,0.495139 -0.200623,0.825221 0,0.462112 0.280883,0.462112 l 13.723036,0 q 0.36113,0 0.481507,0.03298 0.160507,0 0.280883,0.231045 0.160493,0.198052 0.160493,0.693169 l 0,0.990256 q 0,0.462113 -0.160493,0.693169 -0.12039,0.231045 -0.280883,0.297065 -0.160507,0.03298 -0.481507,0.03298 l -18.498013,0 z"
     inkscape:connector-curvature="0" />
  <path
     id="rect3514-9-6-7"
     d="m 0.02843,0.421203 3.5,0 0,65.771515 -3.5,0 z"
     style="fill:#151313"
     inkscape:connector-curvature="0"
     sodipodi:nodetypes="ccccc" />
  <path
     id="rect3518-6-4-3"
     d="m 50.502141,0.25769898 14.87845,-0.085555 0,3.14540482 -14.87845,0.085555 z"
     style="fill:#151313;fill-opacity:1;stroke:#151313;stroke-width:0;stroke-miterlimit:4;stroke-dasharray:none;stroke-opacity:1"
     inkscape:connector-curvature="0"
     sodipodi:nodetypes="ccccc" />
  <path
     inkscape:connector-curvature="0"
     style="fill:#151313"
     d="m 36.803498,66.0805 26.319832,0 0,3.212799 -26.319832,0 z"
     id="rect3522-8-7-7" />
  <path
     id="rect3520-4-7-8"
     d="m 62.214319,1.4643592 3.249972,0 -0.0286,67.8345508 -3.249972,0 z"
     style="fill:#151313;fill-opacity:1;stroke:#151313;stroke-width:0;stroke-miterlimit:4;stroke-dasharray:none;stroke-opacity:1"
     inkscape:connector-curvature="0"
     sodipodi:nodetypes="ccccc" />
  <path
     style="font-style:normal;font-variant:normal;font-weight:300;font-stretch:normal;font-size:60px;line-height:125%;font-family:BenchNine;-inkscape-font-specification:'BenchNine, Light';text-align:start;letter-spacing:0px;word-spacing:0px;writing-mode:lr-tb;text-anchor:start;fill:#151313;fill-opacity:1;stroke:none;stroke-width:1px;stroke-linecap:butt;stroke-linejoin:miter;stroke-opacity:1"
     d="m 16.63379,9.1627669 c -0.559664,0.062141 -0.947134,0.6318119 -1.162387,1.7090011 L 9.9974305,52.105301 c -0.02127,0.124294 -0.03229,0.269301 -0.03229,0.435022 l 0,0.341795 c 0,0.642171 0.1614485,0.963262 0.4843345,0.963262 l 1.872732,0 c 0.301361,0 0.34441,0.198866 1.022462,-0.111863 0,0 2.614586,-14.883609 3.604448,-22.199915 2.48005,1.743488 5.418844,3.617353 5.418844,3.617353 l 7.880787,25.12648 c 0.172205,1.015042 0.602723,1.522568 1.291543,1.522568 l 2.292471,0 c 0.322886,0 0.484334,-0.310728 0.484334,-0.932186 0,-0.124294 -0.03229,-0.258939 -0.09687,-0.403946 -0.04309,-0.165722 -0.07538,-0.300325 -0.09688,-0.403947 L 23.573626,21.015984 20.831262,10.871768 C 20.637532,9.7945788 20.26083,9.2249084 19.701167,9.1627669 Z m 2.169486,6.4354691 3.388422,16.162705 -4.860481,-3.505007 0.82524,-12.656925 z"
     id="path3368-3-9-2"
     inkscape:connector-curvature="0"
     sodipodi:nodetypes="cccssssccccsssccccccccccc" />
</svg>
